<svg width="20" height="20" viewBox="0 0 20 20" fill="none" xmlns="http://www.w3.org/2000/svg">
<path fill-rule="evenodd" clip-rule="evenodd" d="M5 0H15C17.7614 0 20 2.23858 20 5V15C20 17.7614 17.7614 20 15 20H5C2.23858 20 0 17.7614 0 15V5C0 2.23858 2.23858 0 5 0ZM5.2 10.72C4.80235 10.72 4.48 10.3976 4.48 10C4.48 9.60236 4.80235 9.28 5.2 9.28H9.28V5.36C9.28 4.96236 9.60236 4.64 10 4.64C10.3976 4.64 10.72 4.96236 10.72 5.36V9.28H14.64C15.0376 9.28 15.36 9.60236 15.36 10C15.36 10.3976 15.0376 10.72 14.64 10.72H10.72V14.8C10.72 15.1976 10.3976 15.52 10 15.52C9.60236 15.52 9.28 15.1976 9.28 14.8V10.72H5.2Z" fill="#9747FF"/>
</svg>
