<svg width="30" height="30" viewBox="0 0 30 30" fill="none" xmlns="http://www.w3.org/2000/svg">
<path d="M15 12.2727V18.0818H23.0727C22.7182 19.95 21.6545 21.5319 20.059 22.5955L24.9272 26.3728C27.7635 23.7547 29.3999 19.9092 29.3999 15.341C29.3999 14.2774 29.3045 13.2546 29.1272 12.2729L15 12.2727Z" fill="#EDE6FF"/>
<path d="M6.59327 17.855L5.49531 18.6955L1.60889 21.7227C4.07706 26.6181 9.13578 30 14.9994 30C19.0493 30 22.4447 28.6636 24.9265 26.3727L20.0584 22.5954C18.722 23.4954 17.0175 24.0409 14.9994 24.0409C11.0994 24.0409 7.78585 21.4091 6.5994 17.8636L6.59327 17.855Z" fill="#EDE6FF"/>
<path d="M1.60897 8.27722C0.586302 10.2953 0 12.5726 0 14.9999C0 17.4271 0.586302 19.7044 1.60897 21.7225C1.60897 21.736 6.59997 17.8498 6.59997 17.8498C6.29997 16.9498 6.12265 15.9953 6.12265 14.9997C6.12265 14.0041 6.29997 13.0496 6.59997 12.1496L1.60897 8.27722Z" fill="#EDE6FF"/>
<path d="M14.9997 5.97272C17.2088 5.97272 19.1724 6.73634 20.7406 8.20909L25.036 3.91369C22.4314 1.48646 19.0497 0 14.9997 0C9.13609 0 4.07706 3.36818 1.60889 8.27728L6.59973 12.15C7.78602 8.60452 11.0997 5.97272 14.9997 5.97272Z" fill="#EDE6FF"/>
</svg>
