<svg width="24" height="24" viewBox="0 0 24 24" fill="none" xmlns="http://www.w3.org/2000/svg">
<path d="M5.26875 10.5C5.26875 9.61609 5.44286 8.74078 5.78113 7.92411C6.11941 7.10744 6.61523 6.36539 7.24029 5.74034C7.86534 5.11528 8.60739 4.61946 9.42406 4.28118C10.2407 3.94291 11.116 3.7688 12 3.7688C12.884 3.7688 13.7593 3.94291 14.5759 4.28118C15.3926 4.61946 16.1347 5.11528 16.7597 5.74034C17.3848 6.36539 17.8806 7.10744 18.2189 7.92411C18.5571 8.74078 18.7312 9.61609 18.7312 10.5V10.5C18.7312 13.8563 19.4344 15.8063 20.0531 16.875C20.1188 16.9889 20.1535 17.118 20.1536 17.2494C20.1537 17.3808 20.1193 17.51 20.0538 17.6239C19.9883 17.7378 19.894 17.8326 19.7803 17.8986C19.6667 17.9646 19.5377 17.9996 19.4062 18H4.59375C4.46232 17.9996 4.33332 17.9646 4.21967 17.8986C4.10603 17.8326 4.01172 17.7378 3.94621 17.6239C3.8807 17.51 3.84627 17.3808 3.84639 17.2494C3.84651 17.118 3.88116 16.9889 3.94687 16.875C4.56562 15.8063 5.26875 13.8563 5.26875 10.5Z" stroke="#5F33E1" stroke-width="1.5" stroke-linecap="round" stroke-linejoin="round"/>
<path d="M9 18V18.75C9 19.5456 9.31607 20.3087 9.87868 20.8713C10.4413 21.4339 11.2044 21.75 12 21.75C12.7956 21.75 13.5587 21.4339 14.1213 20.8713C14.6839 20.3087 15 19.5456 15 18.75V18" stroke="#5F33E1" stroke-width="1.5" stroke-linecap="round" stroke-linejoin="round"/>
<path d="M17.1937 2.25C18.7208 3.21395 19.9533 4.57938 20.7562 6.19687" stroke="#5F33E1" stroke-width="1.5" stroke-linecap="round" stroke-linejoin="round"/>
<path d="M3.24375 6.19687C4.04674 4.57938 5.2792 3.21395 6.80625 2.25" stroke="#5F33E1" stroke-width="1.5" stroke-linecap="round" stroke-linejoin="round"/>
</svg>
