<svg width="1920" height="1080" viewBox="0 0 1920 1080" fill="none" xmlns="http://www.w3.org/2000/svg">
<g clip-path="url(#clip0_174_1846)">
<rect width="1920" height="1080" fill="white"/>
<g filter="url(#filter0_f_174_1846)">
<path d="M983.356 220.601C1048.59 191.061 1124.9 196.171 1190.74 227.74C1254.3 258.208 1299.67 314.68 1317.65 380.867C1335.56 446.796 1326.78 518.003 1283.83 570.395C1242.07 621.331 1173.5 641.066 1105.52 639.636C1040.62 638.27 981.558 609.178 936.202 563.08C886.243 512.305 842.007 449.803 851.426 381.389C861.347 309.334 915.831 251.177 983.356 220.601Z" fill="url(#paint0_linear_174_1846)"/>
</g>
<g filter="url(#filter1_f_174_1846)">
<path fill-rule="evenodd" clip-rule="evenodd" d="M634.63 757.516C675.337 824.95 625.951 912.822 602.969 990.443C583.972 1054.61 539.242 1104.51 513.492 1166.67C467.291 1278.19 494.082 1428.12 392.759 1497.86C292.811 1566.65 127.393 1569.6 43.0125 1490.48C-45.8141 1407.19 41.1631 1250.51 5.0779 1134.33C-18.5254 1058.34 -121.39 1023.2 -126.968 943.234C-132.841 859.029 -89.3361 771.07 -24.3805 711.992C37.7603 655.475 126.569 643.784 209.592 637.13C281.352 631.38 345.623 657.608 413.69 676.886C491.303 698.869 593.916 690.069 634.63 757.516Z" fill="url(#paint1_linear_174_1846)"/>
</g>
<g filter="url(#filter2_f_174_1846)">
<path fill-rule="evenodd" clip-rule="evenodd" d="M148.659 243.773C94.9762 266.603 41.3696 329.115 -9.07551 309.393C-61.2632 288.99 -18.9113 213.993 -40.7463 169.724C-57.8652 135.016 -108.131 119.997 -120.442 83.601C-137.373 33.5474 -172.471 -33.9998 -122.553 -72.1305C-70.2554 -112.079 7.89361 -48.9037 74.5747 -65.3667C142.352 -82.1003 182.128 -173.097 248.912 -163.842C311.919 -155.111 304.574 -75.9106 332.187 -29.6663C357.264 12.3284 417.824 46.0897 403.096 94.3677C388.218 143.133 315.137 163.268 264.202 193.177C227.559 214.694 188.36 226.89 148.659 243.773Z" fill="url(#paint2_linear_174_1846)"/>
</g>
<g filter="url(#filter3_f_174_1846)">
<path fill-rule="evenodd" clip-rule="evenodd" d="M2038.9 936.188C2048.16 991.77 2037.41 1045.35 2014.95 1097.03C1991.65 1150.64 1962.18 1201.45 1911.19 1230.04C1850.21 1264.24 1777.47 1292.91 1712.74 1266.48C1646.3 1239.35 1614.6 1166.83 1590.67 1099.17C1567.01 1032.27 1555.36 960.687 1581.23 894.609C1608.73 824.354 1662.11 765.709 1732.17 737.703C1804.31 708.863 1891.04 702.474 1956.26 744.681C2016.94 783.947 2027.03 864.894 2038.9 936.188Z" fill="url(#paint3_linear_174_1846)"/>
</g>
<g filter="url(#filter4_f_174_1846)">
<path fill-rule="evenodd" clip-rule="evenodd" d="M1741.82 -84.0602C1812.59 -84.6611 1895.26 -115.52 1945.2 -65.3708C1995.12 -15.2425 1955.53 67.656 1962.96 138.008C1972.17 225.267 2048.98 321.656 1993.22 389.407C1937.73 456.83 1827.36 424.238 1741.82 406.708C1675.57 393.132 1627.12 348.097 1575.93 303.896C1518.1 253.956 1437.76 214.087 1430.67 138.008C1423.32 59.0684 1477.33 -15.8893 1541.87 -61.946C1598.61 -102.443 1672.11 -83.4683 1741.82 -84.0602Z" fill="url(#paint4_linear_174_1846)"/>
</g>
</g>
<defs>
<filter id="filter0_f_174_1846" x="803.651" y="154.526" width="569.245" height="531.683" filterUnits="userSpaceOnUse" color-interpolation-filters="sRGB">
<feFlood flood-opacity="0" result="BackgroundImageFix"/>
<feBlend mode="normal" in="SourceGraphic" in2="BackgroundImageFix" result="shape"/>
<feGaussianBlur stdDeviation="23.25" result="effect1_foregroundBlur_174_1846"/>
</filter>
<filter id="filter1_f_174_1846" x="-157.998" y="605.824" width="838.694" height="974.322" filterUnits="userSpaceOnUse" color-interpolation-filters="sRGB">
<feFlood flood-opacity="0" result="BackgroundImageFix"/>
<feBlend mode="normal" in="SourceGraphic" in2="BackgroundImageFix" result="shape"/>
<feGaussianBlur stdDeviation="15.25" result="effect1_foregroundBlur_174_1846"/>
</filter>
<filter id="filter2_f_174_1846" x="-215.393" y="-231.601" width="687.867" height="611.886" filterUnits="userSpaceOnUse" color-interpolation-filters="sRGB">
<feFlood flood-opacity="0" result="BackgroundImageFix"/>
<feBlend mode="normal" in="SourceGraphic" in2="BackgroundImageFix" result="shape"/>
<feGaussianBlur stdDeviation="33.55" result="effect1_foregroundBlur_174_1846"/>
</filter>
<filter id="filter3_f_174_1846" x="1536.56" y="684.549" width="535.668" height="622.265" filterUnits="userSpaceOnUse" color-interpolation-filters="sRGB">
<feFlood flood-opacity="0" result="BackgroundImageFix"/>
<feBlend mode="normal" in="SourceGraphic" in2="BackgroundImageFix" result="shape"/>
<feGaussianBlur stdDeviation="15" result="effect1_foregroundBlur_174_1846"/>
</filter>
<filter id="filter4_f_174_1846" x="1399.5" y="-124.5" width="644.344" height="585.163" filterUnits="userSpaceOnUse" color-interpolation-filters="sRGB">
<feFlood flood-opacity="0" result="BackgroundImageFix"/>
<feBlend mode="normal" in="SourceGraphic" in2="BackgroundImageFix" result="shape"/>
<feGaussianBlur stdDeviation="15.25" result="effect1_foregroundBlur_174_1846"/>
</filter>
<linearGradient id="paint0_linear_174_1846" x1="863.245" y1="337.365" x2="1320.04" y2="500.445" gradientUnits="userSpaceOnUse">
<stop stop-color="#36C2CE"/>
<stop offset="1" stop-color="#5F33E1"/>
</linearGradient>
<linearGradient id="paint1_linear_174_1846" x1="667.967" y1="813.21" x2="-94.6299" y2="1269.66" gradientUnits="userSpaceOnUse">
<stop stop-color="#36C2CE"/>
<stop offset="1" stop-color="#5F33E1"/>
</linearGradient>
<linearGradient id="paint2_linear_174_1846" x1="185.703" y1="273.216" x2="88.9846" y2="-130.373" gradientUnits="userSpaceOnUse">
<stop stop-color="#36C2CE"/>
<stop offset="1" stop-color="#5F33E1"/>
</linearGradient>
<linearGradient id="paint3_linear_174_1846" x1="2044.31" y1="906.432" x2="1581.7" y2="1074.64" gradientUnits="userSpaceOnUse">
<stop stop-color="#36C2CE"/>
<stop offset="1" stop-color="#5F33E1"/>
</linearGradient>
<linearGradient id="paint4_linear_174_1846" x1="1721.67" y1="-94" x2="1721.67" y2="430.163" gradientUnits="userSpaceOnUse">
<stop stop-color="#36C2CE"/>
<stop offset="1" stop-color="#5F33E1"/>
</linearGradient>
<clipPath id="clip0_174_1846">
<rect width="1920" height="1080" fill="white"/>
</clipPath>
</defs>
</svg>
